<svg id="Capa_1" data-name="Capa 1" xmlns="http://www.w3.org/2000/svg" viewBox="0 0 214.14 104.68"><defs><style>.cls-1{fill:#959595;}</style></defs><path class="cls-1" d="M59.63,37.37c8.56,0,17.23.1,25.79-.1,3.82-.1,5.58.61,6.2,5,3.3,21.8,20.32,36.34,41.89,36.54,21.88.2,39.11-14.43,42.62-36.74.62-3.74,1.75-4.95,5.57-4.95,18.06.1,36,.3,54.07,0,5.89-.1,5.16,3.13,5,6.76-3.1,51-46,93.88-97.83,97.61C89.24,145.48,41.05,111.06,29.7,60.69,28.36,54.94,28,48.88,26.91,43c-.72-4.14.62-5.86,5.16-5.76C41.26,37.58,50.44,37.37,59.63,37.37Z" transform="translate(-26.73 -37.17)"/></svg>