<svg xmlns="http://www.w3.org/2000/svg" viewBox="0 0 67.68 71.74"><defs><style>.cls-1{fill:#0038fe;}.cls-2{fill:#fff;}</style></defs><g id="Capa_2" data-name="Capa 2"><g id="Capa_3" data-name="Capa 3"><rect class="cls-1" width="67.68" height="71.74"/><path class="cls-2" d="M24.85,31.09c1,0,2.08,0,3.12,0,.46,0,.67.07.75.63a5.16,5.16,0,0,0,10.24,0c.07-.47.21-.62.68-.61,2.18,0,4.36,0,6.54,0,.71,0,.63.38.6.83A12.95,12.95,0,0,1,21.24,34c-.16-.72-.22-1.46-.34-2.18-.09-.52.07-.73.63-.71C22.63,31.11,23.74,31.09,24.85,31.09Z"/></g></g></svg>