<svg xmlns="http://www.w3.org/2000/svg" viewBox="0 0 203.43 84.77"><defs><style>.cls-1,.cls-3{fill:#0038fe;}.cls-2{fill:#fefefe;}.cls-3{font-size:69.9px;font-family:Montserrat-ExtraBold, Montserrat;font-weight:800;}</style></defs><g id="Capa_2" data-name="Capa 2"><g id="Capa_2-2" data-name="Capa 2"><path class="cls-1" d="M161.09,42.18A21.17,21.17,0,1,1,182,63.61,21.18,21.18,0,0,1,161.09,42.18Z"/><path class="cls-1" d="M72.16,21.19A21.21,21.21,0,1,1,50.88,42.41,21.26,21.26,0,0,1,72.16,21.19Z"/><path class="cls-1" d="M135.61,21.19a21.21,21.21,0,1,1-21.17,21.2A21.28,21.28,0,0,1,135.61,21.19Z"/><path class="cls-1" d="M110.2,31.7c0,10.11,0,20.21,0,30.32,0,1.29-.33,1.67-1.63,1.63-3.13-.1-6.27-.11-9.39,0-1.4.05-1.71-.39-1.71-1.73,0-17.14,0-34.27,0-51.4,0-3.08,0-6.15,0-9.23,0-1,.29-1.3,1.3-1.28,3.29.06,6.59.09,9.88,0,1.26,0,1.55.34,1.54,1.56C110.18,11.61,110.2,21.65,110.2,31.7Z"/><path class="cls-1" d="M57.37,63.62c1.71,0,3.41,0,5.11,0,.76,0,1.1.11,1.23,1a8.44,8.44,0,0,0,16.75,0c.12-.77.35-1,1.11-1,3.57,0,7.14.06,10.71,0,1.16,0,1,.62,1,1.36a21.19,21.19,0,0,1-41.8,3.38c-.26-1.18-.35-2.39-.55-3.58-.14-.83.12-1.19,1-1.16C53.75,63.66,55.56,63.62,57.37,63.62Z"/><path class="cls-2" d="M182.27,50.85a8.45,8.45,0,1,1,8.48-8.46A8.49,8.49,0,0,1,182.27,50.85Z"/><path class="cls-2" d="M72.17,34a8.45,8.45,0,1,1-8.53,8.37A8.36,8.36,0,0,1,72.17,34Z"/><path class="cls-2" d="M135.6,50.85a8.45,8.45,0,1,1,8.5-8.4A8.39,8.39,0,0,1,135.6,50.85Z"/><text class="cls-3" transform="translate(0 63.59)">h</text></g></g></svg>