<?xml version="1.0" encoding="utf-8"?>
<!-- Generator: Adobe Illustrator 24.3.0, SVG Export Plug-In . SVG Version: 6.00 Build 0)  -->
<svg version="1.1" id="Capa_1" xmlns="http://www.w3.org/2000/svg" xmlns:xlink="http://www.w3.org/1999/xlink" x="0px" y="0px"
	 viewBox="0 0 203.4 84.8" style="enable-background:new 0 0 203.4 84.8;" xml:space="preserve">
<style type="text/css">
	.st0{fill:#0038FE;}
	.st1{fill:#FEFEFE;}
	.st2{enable-background:new    ;}
</style>
<path class="st0" d="M161.1,42.2c0.1-11.7,9.7-21.1,21.4-20.9s21.1,9.7,20.9,21.4c-0.1,11.7-9.7,21-21.4,20.9
	C170.3,63.5,161,53.9,161.1,42.2z"/>
<path class="st0" d="M72.2,21.2c11.7,0,21.2,9.6,21.1,21.3S83.7,63.6,72,63.6c-11.7,0-21.1-9.5-21.1-21.2
	C50.9,30.7,60.4,21.2,72.2,21.2z"/>
<path class="st0" d="M135.6,21.2c11.7,0,21.2,9.5,21.2,21.2c0,11.7-9.5,21.2-21.2,21.2c-11.7,0-21.2-9.5-21.2-21.2c0,0,0,0,0,0
	C114.5,30.7,123.9,21.3,135.6,21.2z"/>
<path class="st0" d="M110.2,31.7c0,10.1,0,20.2,0,30.3c0,1.3-0.3,1.7-1.6,1.6c-3.1-0.1-6.3-0.1-9.4,0c-1.4,0-1.7-0.4-1.7-1.7
	c0-17.1,0-34.3,0-51.4c0-3.1,0-6.2,0-9.2c0-1,0.3-1.3,1.3-1.3c3.3,0.1,6.6,0.1,9.9,0c1.3,0,1.6,0.3,1.5,1.6
	C110.2,11.6,110.2,21.6,110.2,31.7z"/>
<path class="st0" d="M57.4,63.6c1.7,0,3.4,0,5.1,0c0.8,0,1.1,0.1,1.2,1c0.6,4.6,4.8,7.9,9.4,7.3c3.8-0.5,6.9-3.5,7.3-7.3
	c0.1-0.8,0.3-1,1.1-1c3.6,0,7.1,0.1,10.7,0c1.2,0,1,0.6,1,1.4c-0.7,11.7-10.8,20.5-22.5,19.8c-9.4-0.6-17.2-7.3-19.3-16.4
	c-0.3-1.2-0.3-2.4-0.5-3.6c-0.1-0.8,0.1-1.2,1-1.2C53.8,63.7,55.6,63.6,57.4,63.6z"/>
<path class="st1" d="M182.3,50.8c-4.7,0-8.4-3.8-8.4-8.5c0-4.7,3.8-8.4,8.5-8.4c4.7,0,8.4,3.8,8.4,8.4
	C190.7,47.1,186.9,50.8,182.3,50.8z"/>
<path class="st1" d="M72.2,34c4.7,0,8.4,3.9,8.4,8.5c0,4.7-3.9,8.4-8.5,8.4c-4.7,0-8.4-3.9-8.4-8.5c0-4.6,3.7-8.4,8.3-8.4
	C72,34,72.1,34,72.2,34z"/>
<path class="st1" d="M135.6,50.8c-4.7,0-8.4-3.8-8.4-8.5s3.8-8.4,8.5-8.4c4.7,0,8.4,3.8,8.4,8.5c0,4.6-3.7,8.4-8.4,8.4
	C135.7,50.9,135.6,50.9,135.6,50.8z"/>
<g class="st2">
	<path class="st0" d="M40.3,29.3c2.9,2.8,4.3,7,4.3,12.7v21.7H31.3V44.1c0-5.2-2.1-7.8-6.2-7.8c-2.3,0-4.1,0.7-5.5,2.2
		c-1.4,1.5-2.1,3.7-2.1,6.7v18.3H4.3V11.7h13.3v17.5c1.4-1.4,3.1-2.4,5.1-3.1c2-0.7,4.1-1,6.3-1C33.6,25.1,37.4,26.5,40.3,29.3z"/>
</g>
</svg>
