<?xml version="1.0" encoding="utf-8"?>
<!-- Generator: Adobe Illustrator 24.3.0, SVG Export Plug-In . SVG Version: 6.00 Build 0)  -->
<svg version="1.1" id="Capa_1" xmlns="http://www.w3.org/2000/svg" xmlns:xlink="http://www.w3.org/1999/xlink" x="0px" y="0px"
	 viewBox="0 0 1920 1080" style="enable-background:new 0 0 1920 1080;" xml:space="preserve">
<style type="text/css">
	.st0{fill:#0038FE;}
	.st1{fill:#959595;}
</style>
<path class="st0" d="M76.5,698.8c9.5,0,19,0.1,28.5-0.1c4.2,0,6.2,0.7,6.8,5.8c3.6,24.4,22.4,40.6,46.2,40.9
	c24.2,0.2,43.2-16.1,47-41.1c0.8-4.2,2.1-5.5,6.3-5.5c19.9,0.1,39.8,0.3,59.7,0c6.5-0.1,5.7,3.5,5.5,7.6c-3.4,57-50.8,105-108,109.1
	c-59.2,4.3-112.3-34.1-125-90.5c-1.5-6.4-1.9-13.2-3.1-19.7c-0.8-4.6,0.6-6.5,5.7-6.4C56.3,699,66.3,698.8,76.5,698.8z"/>
<path class="st0" d="M684.9,379c-4.7-3.6-9.4-7.3-14.2-10.8c-2.1-1.6-2.8-2.7-1.2-5.5c7.7-13.5,4.6-28.7-7.1-37.9
	c-11.9-9.3-27.7-8.4-39.3,2.5c-2,1.8-3.2,2-5.3,0.4c-9.8-7.6-19.6-15.3-29.6-22.7c-3.3-2.4-1.5-3.9,0.2-5.8
	c23.8-27,65.9-32.8,95.9-13.1c31.1,20.4,42.5,59.6,26.9,92.4c-1.8,3.8-4.2,7.3-6.1,11c-1.4,2.6-2.8,3-5.3,1
	C694.9,386.5,689.9,382.8,684.9,379z"/>
<path class="st0" d="M548.1,777.4c-3.2,2.1-6.5,4.2-9.6,6.3c-1.4,0.9-2.2,1.1-3.6-0.4c-6.7-7.4-16.7-8.8-24.8-3.6
	c-8.2,5.2-11,15-6.7,24.3c0.7,1.6,0.6,2.3-0.9,3.3c-6.8,4.4-13.5,8.6-20.2,13.2c-2.2,1.5-2.7,0.1-3.5-1.4c-11.7-20-6.4-46.7,12-60.7
	c19.1-14.5,45.6-13.2,62.6,3.1c1.9,1.8,3.6,4,5.5,6c1.3,1.4,1.3,2.3-0.5,3.4C554.8,772.9,551.5,775.1,548.1,777.4z"/>
<path class="st1" d="M635.5,586.3c1-0.7,2.1-1.4,3.2-2.2c0.5-0.3,0.7-0.4,1.2,0.1c2.3,2.4,5.6,2.8,8.3,1.1c2.7-1.8,3.6-5,2.1-8.1
	c-0.2-0.5-0.2-0.8,0.3-1.1c2.2-1.5,4.4-3,6.6-4.5c0.7-0.5,0.9,0,1.2,0.4c4,6.6,2.4,15.5-3.6,20.2c-6.2,4.9-15.1,4.7-20.8-0.6
	c-0.7-0.6-1.2-1.3-1.9-2c-0.4-0.5-0.4-0.8,0.1-1.1C633.3,587.8,634.4,587.1,635.5,586.3z"/>
<path class="st1" d="M352.3,543.3c-3.2,2.1-6.5,4.2-9.6,6.3c-1.4,0.9-2.2,1.1-3.6-0.4c-6.7-7.4-16.7-8.8-24.8-3.6
	c-8.2,5.2-11,15-6.7,24.3c0.7,1.6,0.6,2.3-0.9,3.3c-6.8,4.4-13.5,8.6-20.2,13.2c-2.2,1.5-2.7,0.1-3.5-1.4c-11.7-20-6.4-46.7,12-60.7
	c19.1-14.5,45.6-13.2,62.6,3.1c1.9,1.8,3.6,4,5.5,6c1.3,1.4,1.3,2.3-0.5,3.4C359.1,538.8,355.8,541.1,352.3,543.3z"/>
<path class="st1" d="M439.7,352.2c1-0.7,2.1-1.4,3.2-2.2c0.5-0.3,0.7-0.4,1.2,0.1c2.3,2.4,5.6,2.8,8.3,1.1c2.7-1.8,3.6-5,2.1-8.1
	c-0.2-0.5-0.2-0.8,0.3-1.1c2.2-1.5,4.4-3,6.6-4.5c0.7-0.5,0.9,0,1.2,0.4c4,6.6,2.4,15.5-3.6,20.2c-6.2,4.9-15.1,4.7-20.8-0.6
	c-0.7-0.6-1.2-1.3-1.9-2c-0.4-0.5-0.4-0.8,0.1-1.1C437.5,353.8,438.6,353,439.7,352.2z"/>
<path class="st1" d="M139.3,336.7c-0.4,1.2-0.9,2.4-1.3,3.6c-0.2,0.5-0.4,0.7-1.1,0.6c-3.3-0.7-6.2,0.9-7.4,3.9
	c-1.1,3,0.1,6.1,3.1,7.8c0.5,0.3,0.6,0.5,0.4,1c-0.9,2.5-1.9,5-2.8,7.5c-0.3,0.8-0.7,0.5-1.2,0.3c-7.1-3.1-11-11.2-8.9-18.5
	c2.2-7.6,9.6-12.5,17.3-11.4c0.9,0.1,1.8,0.4,2.7,0.5c0.6,0.1,0.8,0.4,0.6,1C140.2,334.2,139.8,335.5,139.3,336.7z"/>
<path class="st0" d="M1663.5,693.6c9.5,0,19,0.1,28.5-0.1c4.2,0,6.2,0.7,6.8,5.8c3.6,24.4,22.4,40.6,46.3,40.9
	c24.1,0.2,43.2-16.1,47-41.1c0.8-4.2,2-5.5,6.3-5.5c19.9,0.1,39.7,0.3,59.7,0c6.5-0.1,5.7,3.5,5.5,7.6c-3.4,57-50.8,105-108,109.1
	c-59.2,4.3-112.3-34.1-125-90.5c-1.5-6.4-1.9-13.2-3.1-19.7c-0.8-4.6,0.6-6.5,5.7-6.4C1643.4,693.8,1653.4,693.6,1663.5,693.6z"/>
<path class="st0" d="M1846.2,410.2c-4.7-3.6-9.4-7.3-14.2-10.8c-2.1-1.6-2.8-2.7-1.2-5.5c7.7-13.5,4.6-28.7-7.1-37.9
	c-11.9-9.3-27.7-8.4-39.3,2.5c-2,1.8-3.2,2-5.3,0.4c-9.8-7.6-19.6-15.3-29.6-22.7c-3.3-2.4-1.5-3.9,0.2-5.8
	c23.8-27,66-32.8,95.9-13.1c31.1,20.4,42.5,59.6,26.9,92.4c-1.8,3.8-4.2,7.3-6.1,11c-1.4,2.6-2.8,3-5.3,1
	C1856.3,417.7,1851.3,414,1846.2,410.2z"/>
<path class="st0" d="M1404.7,669.4c-3.2,2.1-6.5,4.2-9.6,6.3c-1.4,0.9-2.2,1.1-3.6-0.4c-6.7-7.4-16.7-8.8-24.8-3.6
	c-8.2,5.2-11,15-6.7,24.3c0.7,1.6,0.5,2.3-0.9,3.3c-6.8,4.4-13.5,8.6-20.2,13.2c-2.2,1.5-2.7,0.1-3.5-1.4c-11.7-20-6.4-46.7,12-60.7
	c19.1-14.5,45.6-13.2,62.6,3.1c2,1.8,3.6,4,5.5,6c1.3,1.4,1.3,2.3-0.5,3.4C1411.4,664.9,1408.1,667.2,1404.7,669.4z"/>
<path class="st1" d="M1477.6,855.5c1-0.7,2.1-1.4,3.1-2.2c0.5-0.3,0.7-0.4,1.2,0.1c2.3,2.4,5.6,2.8,8.3,1.1c2.7-1.8,3.5-5,2.1-8.1
	c-0.2-0.5-0.2-0.8,0.3-1.1c2.2-1.5,4.4-3,6.6-4.5c0.7-0.5,0.9,0,1.2,0.4c4,6.6,2.4,15.5-3.6,20.2c-6.2,4.9-15.1,4.7-20.8-0.6
	c-0.7-0.6-1.2-1.3-1.9-2c-0.4-0.5-0.4-0.8,0.1-1.1C1475.4,857,1476.5,856.2,1477.6,855.5z"/>
<path class="st1" d="M1299.8,464.7c2-3.3,4-6.5,5.8-9.8c0.9-1.5,1.5-2,3.4-1.2c9.3,3.8,18.9,0.7,23.9-7.5c5.1-8.3,3.2-18.2-4.7-24.7
	c-1.3-1.1-1.5-1.8-0.7-3.3c4.2-6.8,8.3-13.6,12.3-20.6c1.3-2.3,2.4-1.2,3.8-0.3c19.3,12.9,26.4,39.2,16.1,59.7
	c-10.7,21.3-35.2,31.7-57.6,24.4c-2.6-0.8-5-2.1-7.6-3c-1.8-0.7-2.2-1.5-1.1-3.3C1295.7,471.7,1297.7,468.2,1299.8,464.7z"/>
<path class="st1" d="M1622.2,509.6c1.1-0.7,2.1-1.4,3.1-2.2c0.5-0.3,0.7-0.4,1.2,0.1c2.3,2.4,5.6,2.8,8.3,1.1c2.7-1.8,3.5-5,2.1-8.1
	c-0.2-0.5-0.2-0.8,0.3-1.1c2.2-1.5,4.4-3,6.6-4.5c0.7-0.5,0.9,0,1.2,0.4c4,6.6,2.4,15.5-3.6,20.2c-6.3,4.9-15.1,4.7-20.8-0.6
	c-0.7-0.6-1.2-1.3-1.9-2c-0.4-0.5-0.4-0.8,0.1-1.1C1619.9,511.1,1621,510.3,1622.2,509.6z"/>
<path class="st1" d="M1576.6,219.7c-0.4,1.2-0.9,2.4-1.3,3.6c-0.2,0.5-0.4,0.7-1.1,0.6c-3.3-0.7-6.2,0.9-7.3,3.9
	c-1.2,3,0.1,6.1,3.1,7.8c0.5,0.3,0.6,0.5,0.4,1c-0.9,2.5-1.9,5-2.8,7.5c-0.3,0.8-0.7,0.5-1.2,0.3c-7.1-3.1-11-11.2-8.9-18.5
	c2.2-7.6,9.5-12.5,17.3-11.4c0.9,0.1,1.8,0.4,2.7,0.5c0.6,0.1,0.8,0.4,0.5,1C1577.5,217.2,1577.1,218.4,1576.6,219.7z"/>
</svg>
