<svg id="Capa_1" data-name="Capa 1" xmlns="http://www.w3.org/2000/svg" viewBox="0 0 208 208"><defs><style>.cls-1{fill:#959595;}.cls-2{fill:none;}</style></defs><path class="cls-1" d="M396,266.9c-4.43,0-8.87,0-13.3,0-5.75,0-8.92-3.2-8.94-8.94q0-13.3,0-26.61c0-5.74,3.19-8.92,8.93-8.94q13.31,0,26.61,0c5.75,0,8.92,3.19,8.94,8.93q0,13.31,0,26.61c0,5.75-3.19,8.91-8.93,8.95C404.88,266.93,400.44,266.9,396,266.9Zm17-16.83c.06-1.08.14-1.73.14-2.39,0-5.35,0-10.71,0-16.06,0-3.33-.72-4.06-4-4.07q-13.08,0-26.16,0c-3.3,0-4,.74-4,4.08q0,12.27,0,24.55c0,.57.12,1.13.21,2,.71-.54,1.2-.88,1.66-1.27,4.93-4.11,9.83-8.26,14.79-12.33,4-3.27,6.91-3.23,10.85,0C408.5,246.3,410.57,248.06,413,250.07Zm-30,11.68h27c.3,0,.69,0,.89-.12.72-.58,1.8-1.14,2-1.88.22-1.05.17-2.68-.49-3.3-3.16-3-6.51-5.77-9.93-8.45a2.9,2.9,0,0,0-2.75-.11C394.17,252.28,388.84,256.81,382.93,261.75Z" transform="translate(-292 -140.65)"/><path class="cls-1" d="M389.85,236.15A3.59,3.59,0,0,1,386,239.8a3.78,3.78,0,0,1-3.53-3.78,3.61,3.61,0,0,1,3.9-3.6A3.52,3.52,0,0,1,389.85,236.15Z" transform="translate(-292 -140.65)"/><rect class="cls-2" width="208" height="208"/></svg>