<svg width="685" height="394" viewBox="0 0 685 394" fill="none" xmlns="http://www.w3.org/2000/svg">
<path d="M615.797 147.671C610.734 143.712 605.656 139.645 600.498 135.81C598.24 134.045 597.487 132.865 599.249 129.804C607.51 114.962 604.253 98.2158 591.597 88.1252C578.757 77.8915 561.712 78.8662 549.187 90.8691C547.011 92.8163 545.772 93.0314 543.515 91.2669C532.885 82.8594 522.364 74.438 511.546 66.2771C508.021 63.6204 509.961 61.9815 511.785 59.8575C537.496 30.1557 582.973 23.7942 615.349 45.4539C648.871 67.9103 661.224 111.095 644.352 147.212C642.45 151.346 639.857 155.236 637.724 159.289C636.213 162.15 634.677 162.626 631.979 160.418C626.691 155.989 621.227 151.915 615.797 147.671Z" fill="#0038FE"/>
<path d="M562.513 375.927C563.646 375.144 564.801 374.366 565.915 373.555C566.419 373.206 566.707 373.128 567.21 373.692C569.667 376.368 573.265 376.797 576.135 374.853C579.046 372.881 579.968 369.307 578.365 365.94C578.114 365.364 578.152 365.094 578.657 364.745C581.054 363.108 583.446 361.495 585.806 359.803C586.574 359.251 586.778 359.759 587.087 360.274C591.401 367.518 589.7 377.301 583.198 382.546C576.459 387.975 566.922 387.683 560.731 381.837C560.02 381.174 559.405 380.385 558.726 379.68C558.247 379.18 558.252 378.833 558.875 378.422C560.117 377.624 561.299 376.766 562.513 375.927Z" fill="#959595"/>
<path d="M26.9413 101.136C26.4685 102.436 25.9745 103.747 25.5328 105.059C25.322 105.639 25.1319 105.871 24.3985 105.706C20.8599 104.964 17.6825 106.721 16.4608 109.985C15.2221 113.295 16.5239 116.747 19.7642 118.552C20.2993 118.875 20.4231 119.116 20.2123 119.696C19.1999 122.433 18.1777 125.148 17.2274 127.908C16.9182 128.807 16.4609 128.513 15.9129 128.274C8.23687 124.897 4.00272 115.932 6.28739 107.852C8.65906 99.4843 16.5967 94.1387 24.9982 95.2772C25.9579 95.4016 26.913 95.6843 27.8712 95.8614C28.5482 95.9877 28.744 96.2736 28.4721 96.9731C27.9185 98.3505 27.4483 99.7411 26.9413 101.136Z" fill="#959595"/>
</svg>
