<svg width="765" height="635" viewBox="0 0 765 635" fill="none" xmlns="http://www.w3.org/2000/svg">
<path d="M39.0576 499.439C49.2565 499.439 59.5783 499.564 69.7773 499.315C74.3238 499.315 76.4127 500.061 77.15 505.659C81.0821 532.531 101.357 550.445 127.039 550.694C153.089 550.943 173.61 532.904 177.788 505.411C178.648 500.808 180 499.315 184.546 499.315C206.05 499.439 227.431 499.688 248.935 499.315C255.939 499.19 255.078 503.171 254.833 507.65C251.146 570.474 200.029 623.347 138.344 627.95C74.4467 632.677 17.1852 590.379 3.54561 528.177C1.94819 521.086 1.45667 513.621 0.227886 506.406C-0.632265 501.305 0.84228 499.19 6.37182 499.315C17.308 499.688 28.1214 499.439 39.0576 499.439Z" fill="#0038FE"/>
<path d="M695.797 147.671C690.734 143.712 685.656 139.645 680.498 135.81C678.24 134.045 677.487 132.865 679.249 129.804C687.51 114.962 684.253 98.2158 671.597 88.1252C658.757 77.8915 641.712 78.8662 629.187 90.8691C627.011 92.8163 625.772 93.0314 623.515 91.2669C612.885 82.8594 602.364 74.438 591.546 66.2771C588.021 63.6204 589.961 61.9815 591.785 59.8575C617.496 30.1557 662.973 23.7942 695.349 45.4539C728.871 67.9103 741.224 111.095 724.352 147.212C722.45 151.346 719.857 155.236 717.724 159.289C716.213 162.15 714.677 162.626 711.979 160.418C706.691 155.989 701.227 151.915 695.797 147.671Z" fill="#0038FE"/>
<path d="M548.165 586.297C544.714 588.591 541.194 590.87 537.798 593.247C536.26 594.27 535.389 594.488 533.906 592.763C526.657 584.573 515.852 583.083 507.107 588.774C498.239 594.549 495.268 605.255 499.91 615.479C500.633 617.227 500.505 618.035 498.966 619.058C491.663 623.852 484.374 628.576 477.181 633.538C474.838 635.155 474.252 633.617 473.349 632.05C460.759 610.005 466.41 580.654 486.267 565.228C506.845 549.261 535.536 550.668 553.851 568.606C555.953 570.642 557.763 573.052 559.768 575.212C561.183 576.741 561.15 577.787 559.251 578.988C555.469 581.322 551.865 583.838 548.165 586.297Z" fill="#0038FE"/>
<path d="M642.513 375.927C643.646 375.144 644.801 374.366 645.915 373.555C646.419 373.206 646.707 373.128 647.21 373.692C649.667 376.368 653.265 376.797 656.135 374.853C659.046 372.881 659.968 369.307 658.365 365.94C658.114 365.363 658.152 365.094 658.657 364.745C661.054 363.108 663.446 361.495 665.806 359.803C666.574 359.251 666.778 359.759 667.087 360.274C671.401 367.518 669.7 377.301 663.198 382.546C656.459 387.975 646.922 387.683 640.731 381.837C640.02 381.174 639.405 380.385 638.726 379.68C638.247 379.18 638.252 378.833 638.875 378.422C640.117 377.624 641.299 376.766 642.513 375.927Z" fill="#959595"/>
<path d="M106.941 101.136C106.469 102.436 105.974 103.747 105.533 105.059C105.322 105.639 105.132 105.871 104.399 105.706C100.86 104.964 97.6825 106.721 96.4608 109.985C95.2221 113.295 96.5239 116.747 99.7642 118.552C100.299 118.875 100.423 119.116 100.212 119.696C99.1999 122.433 98.1777 125.148 97.2274 127.908C96.9182 128.807 96.4609 128.513 95.9129 128.274C88.2369 124.897 84.0027 115.932 86.2874 107.852C88.6591 99.4843 96.5967 94.1387 104.998 95.2772C105.958 95.4016 106.913 95.6843 107.871 95.8614C108.548 95.9877 108.744 96.2736 108.472 96.9731C107.919 98.3505 107.448 99.7411 106.941 101.136Z" fill="#959595"/>
</svg>
